<?xml version="1.0" encoding="iso-8859-1"?>
<!-- Uploaded to: SVG Repo, www.svgrepo.com, Generator: SVG Repo Mixer Tools -->
<svg height="800px" width="800px" version="1.1" id="Layer_1" xmlns="http://www.w3.org/2000/svg" xmlns:xlink="http://www.w3.org/1999/xlink" 
	 viewBox="0 0 512 512" xml:space="preserve">
<path style="fill:#FFDB2D;" d="M289.523,512h-68.276c-6.761,0-12.883-3.991-15.614-10.175l-20.704-46.916l-66.676-38.482
	l-51.011,5.542c-6.721,0.733-13.245-2.578-16.624-8.434L16.486,354.4c-3.38-5.857-2.982-13.157,1.015-18.612l30.24-41.276v-77.023
	l-30.24-41.276c-3.996-5.455-4.394-12.754-1.015-18.612l34.132-59.135c3.38-5.857,9.902-9.166,16.624-8.434l51.011,5.542
	l66.676-38.482l20.704-46.916C208.362,3.99,214.487,0,221.247,0h68.276c6.761,0,12.884,3.99,15.614,10.175l20.704,46.916
	l66.676,38.482l51.011-5.542c6.723-0.728,13.245,2.578,16.624,8.434l34.132,59.135c3.38,5.857,2.982,13.157-1.015,18.612
	l-30.24,41.276v77.023l30.24,41.276c3.996,5.455,4.394,12.754,1.015,18.612l-34.132,59.135c-3.381,5.857-9.917,9.161-16.624,8.434
	l-51.011-5.542l-66.676,38.482l-20.704,46.916C302.406,508.009,296.284,512,289.523,512z"/>
<g>
	<path style="fill:#FF9900;" d="M464.168,294.512v-77.023l30.323-41.276c4.007-5.455,4.407-12.755,1.017-18.612l-34.225-59.135
		c-3.389-5.856-9.928-9.163-16.67-8.434l-51.151,5.542L326.603,57.09l-20.762-46.915C303.105,3.99,296.964,0,290.185,0h-34.231v512
		h34.231c6.779,0,12.919-3.991,15.656-10.175l20.761-46.916l66.858-38.483l51.151,5.542c6.725,0.727,13.279-2.577,16.67-8.434
		l34.225-59.135c3.389-5.857,2.99-13.157-1.017-18.612L464.168,294.512z"/>
	<path style="fill:#FF9900;" d="M255.385,407.324c-83.441,0-151.324-67.884-151.324-151.324s67.883-151.324,151.324-151.324
		S406.71,172.56,406.71,256S338.827,407.324,255.385,407.324z"/>
</g>
<g>
	<path style="fill:#FF4F19;" d="M406.71,256c0-83.25-67.576-151.008-150.756-151.318v302.634
		C339.134,407.009,406.71,339.25,406.71,256z"/>
	<path style="fill:#FF4F19;" d="M264.423,238.933h-16.938c-10.524,0-10.527-15.929,0-15.929h42.154
		c8.761,0,16.447-6.418,17.408-15.126c1.135-10.295-6.894-19.008-16.96-19.008H273.02v-15.481c0-8.761-6.418-16.447-15.126-17.408
		c-10.295-1.135-19.008,6.894-19.008,16.96v16.814c-49.266,10.264-41.718,83.31,8.598,83.31h16.938c10.524,0,10.527,15.929,0,15.929
		h-42.154c-8.761,0-16.447,6.418-17.408,15.126c-1.135,10.295,6.894,19.008,16.96,19.008h17.067v15.481
		c0,8.761,6.418,16.447,15.126,17.408c10.295,1.135,19.008-6.894,19.008-16.96v-16.814
		C322.287,311.98,314.738,238.933,264.423,238.933z"/>
</g>
<g>
	<path style="fill:#FC0023;" d="M290.676,223.004c11.188,0,19.945-10.059,17.121-21.331c-1.913-7.633-9.05-12.802-16.919-12.802
		h-17.857v-15.929c0-9.233-7.591-16.734-17.067-17.038v67.1H290.676z"/>
	<path style="fill:#FC0023;" d="M264.126,238.933h-8.173v34.133h7.9c10.524,0,10.527,15.929,0,15.929h-7.9v67.1
		c9.475-0.303,17.067-7.804,17.067-17.038v-16.814C323.985,311.98,316.177,238.933,264.126,238.933z"/>
</g>
</svg>